<?xml version="1.0" standalone="no"?><!DOCTYPE svg PUBLIC "-//W3C//DTD SVG 1.1//EN" "http://www.w3.org/Graphics/SVG/1.1/DTD/svg11.dtd"><svg t="1524213025435" class="icon" style="" viewBox="0 0 1024 1024" version="1.1" xmlns="http://www.w3.org/2000/svg" p-id="6608" xmlns:xlink="http://www.w3.org/1999/xlink" width="64" height="64"><defs><style type="text/css"></style></defs><path d="M769.568 377.696c-1.648 114.8-48.272 163.648-48.272 163.648C716.896 285.632 464.48 11.52 464.48 11.52c83.408 169.776-285.344 383.232-285.344 689.36 0 192.032 236.864 333.088 355.584 308.88C1047.776 905.2 769.568 377.696 769.568 377.696L769.568 377.696zM512 932.816c0 0-265.92-130.848-7.472-420.8 0 0 128.4 130.08 103.712 251.28 0 0 36.208 3.84 82.304-62.144C690.544 701.136 701.312 885.248 512 932.816L512 932.816z" p-id="6609"></path></svg>