<?xml version="1.0" standalone="no"?><!DOCTYPE svg PUBLIC "-//W3C//DTD SVG 1.1//EN" "http://www.w3.org/Graphics/SVG/1.1/DTD/svg11.dtd"><svg t="1525933563792" class="icon" style="" viewBox="0 0 1024 1024" version="1.1" xmlns="http://www.w3.org/2000/svg" p-id="1161" xmlns:xlink="http://www.w3.org/1999/xlink" width="64" height="64"><defs><style type="text/css"></style></defs><path d="M788.82335175 751.0858331L537.18280989 625.32788679l76.02722588-110.62169828a31.92323413 31.92323413 0 0 0 5.59410858-18.02766336V320.10062734c0-115.12774087-92.25153991-205.32896199-210.0528492-205.32896199-117.80131043 0-210.05285035 90.20005603-210.05285035 205.32896199v176.57789781a31.69024227 31.69024227 0 0 0 5.89000704 18.43190216l78.20219506 109.96815986L20.19371235 750.83653347a31.87314005 31.87314005 0 0 0-18.07426104 28.71960918v112.08255146c0 17.59313465 14.25088171 31.82770745 31.82770744 31.82770746h740.64045626c17.59313465 0 31.82770745-14.23573789 31.8277063-31.82770746v-112.08255146c0.00116509-12.05960363-6.80566101-23.09288277-17.59196956-28.47030955z m-46.0634442 108.72515357H65.77603129v-60.20598557l278.60456676-133.43615772a31.76712989 31.76712989 0 0 0 17.06424547-20.76297444 31.64014933 31.64014933 0 0 0-4.87999147-26.38853803l-94.2098284-132.50302862v-166.41367495c0-79.4463653 64.30895445-141.67238201 146.3962715-141.67238201 82.08848099 0 146.39743545 62.22601671 146.39743544 141.67238201v166.69326336l-91.16347392 132.62768015a31.81955299 31.81955299 0 0 0-4.60040305 25.98429809c2.33107342 8.92005262 8.36087467 16.41187101 16.59826403 20.51367481l266.77795385 133.31150734v60.57993558z" fill="#ffffff" p-id="1162"></path><path d="M1001.73616469 672.57259577L750.12707555 546.81348437l76.02722589-110.62169941a31.92672825 31.92672825 0 0 0 5.59527481-18.02766222V241.58739001c0-115.12774087-92.25153991-205.32896199-210.05285035-205.32896199-22.93910869 0-45.41107086 3.48088206-66.7949659 10.35061589l19.45706155 60.6102255c15.10595811-4.84853874 31.02039381-7.30426141 47.33790435-7.30426141 82.08731705 0 146.39627037 62.22601671 146.39627037 141.67238201v166.69326336l-91.16347278 132.627679a31.81955299 31.81955299 0 0 0-4.60040306 25.98429924c2.33107342 8.92121771 8.36087467 16.41187101 16.59826403 20.51367367l266.74649999 133.31150734v60.57877163h-79.35316992v63.65657998h111.18087736c17.59196957 0 31.82770745-14.23573789 31.82770745-31.82770745v-112.08255147c0-12.05960363-6.80799118-23.09288277-17.59313465-28.47030954z" fill="#ffffff" p-id="1163"></path></svg>