<?xml version="1.0" standalone="no"?><!DOCTYPE svg PUBLIC "-//W3C//DTD SVG 1.1//EN" "http://www.w3.org/Graphics/SVG/1.1/DTD/svg11.dtd"><svg t="1525850463385" class="icon" style="" viewBox="0 0 1024 1024" version="1.1" xmlns="http://www.w3.org/2000/svg" p-id="3954" xmlns:xlink="http://www.w3.org/1999/xlink" width="128" height="128"><defs><style type="text/css"></style></defs><path d="M273.28512 609.97632c10.8544-3.87072 21.68832-8.51968 32.52224-13.18912-1.55648-0.77824-2.33472-2.31424-3.11296-3.072-3.09248-6.98368-4.62848-13.94688-3.87072-20.13184l37.1712-6.18496c3.87072-5.44768 7.74144-11.61216 10.8544-18.57536 3.09248-6.22592 5.40672-13.18912 8.51968-21.7088 2.31424-8.51968 3.87072-17.8176 4.64896-27.87328 0-6.9632 0-15.48288-0.77824-24.76032-1.55648-10.07616-3.87072-20.13184-6.98368-30.208-2.31424-10.07616-6.9632-20.8896-11.59168-30.96576-4.64896-10.07616-10.8544-19.3536-18.59584-27.09504-6.9632-8.51968-15.48288-14.72512-25.55904-20.13184-10.05568-4.66944-20.91008-6.9632-33.30048-6.9632-3.09248 0-5.40672 0-7.72096 0-2.31424 0-5.4272 0-7.74144 0.77824-10.07616 0-19.3536 1.51552-28.65152 4.62848-17.03936 4.66944-30.18752 12.3904-40.26368 21.68832-9.29792 10.07616-17.03936 20.8896-21.68832 34.05824-4.64896 12.36992-7.74144 24.80128-9.29792 38.72768-1.536 13.9264-1.536 26.3168-1.536 38.68672 0 13.94688 0.75776 26.33728 3.09248 34.85696 3.09248 9.27744 5.4272 17.05984 8.51968 21.68832 3.87072 6.18496 7.74144 10.83392 12.3904 13.9264l32.52224 5.44768c0 3.072 0 6.20544 0 9.29792 0 2.31424-0.77824 5.40672-2.33472 7.74144-1.536 3.09248-3.87072 5.40672-6.18496 7.74144-3.09248 3.09248-6.20544 5.40672-11.61216 8.51968-6.18496 4.66944-13.9264 7.72096-22.44608 10.05568-8.54016 1.55648-17.05984 4.64896-25.55904 6.9632-7.74144 3.09248-14.70464 6.9632-20.91008 11.61216-6.20544 4.64896-10.07616 11.61216-11.61216 20.91008-2.33472 16.26112-3.11296 29.40928-1.55648 39.48544 1.55648 10.05568 3.09248 16.24064 6.20544 17.79712 2.31424 2.31424 8.51968 3.87072 19.33312 6.9632 10.8544 2.33472 23.22432 4.66944 37.94944 7.00416 13.16864 1.51552 26.3168 3.072 40.26368 4.62848 0-13.18912 0.75776-30.208 0.75776-45.6704 0.77824-11.61216 0.77824-21.66784 0.77824-28.65152l0-1.51552 0.77824-1.55648c7.74144-24.02304 30.96576-31.76448 51.11808-38.72768C263.22944 614.6048 268.65664 612.27008 273.28512 609.97632L273.28512 609.97632zM912.83456 697.46688c-5.44768-13.94688-16.2816-25.53856-28.65152-33.28-24.76032-17.03936-54.96832-23.2448-81.3056-37.94944-8.4992-5.4272-17.01888-12.3904-20.91008-22.48704-1.536-13.14816-0.77824-27.09504-0.77824-40.2432 4.66944-3.87072 7.76192-8.51968 10.83392-13.18912 5.44768-10.81344 9.29792-22.44608 10.83392-34.05824 4.64896-0.77824 8.51968-3.85024 10.8544-6.9632 4.62848-6.9632 6.18496-14.70464 6.9632-22.46656 0-6.9632-2.33472-13.9264-7.74144-18.59584 6.9632-22.44608 11.61216-46.42816 9.27744-69.67296-1.536-13.9264-6.9632-28.65152-17.79712-38.68672-6.9632-6.18496-17.03936-10.07616-26.3168-11.61216-3.09248-3.072-6.22592-6.9632-9.29792-8.51968-10.05568-6.18496-22.46656-7.74144-34.05824-8.51968-20.91008 0.77824-42.5984 3.8912-59.63776 16.26112-8.51968 6.20544-14.70464 14.72512-19.31264 23.98208-5.44768 10.87488-7.7824 24.02304-8.51968 36.41344-0.77824 20.8896 3.072 41.02144 7.74144 60.35456-5.44768 4.66944-7.74144 10.87488-7.74144 17.05984 0.73728 6.9632 1.51552 13.14816 4.62848 19.3536 2.33472 5.40672 6.20544 10.0352 12.3904 11.59168 1.536 10.83392 5.4272 21.68832 10.81344 31.76448 3.11296 6.18496 7.00416 11.59168 11.61216 15.48288 0 13.14816 0.77824 27.09504-0.75776 41.02144-0.77824 1.55648-1.55648 3.09248-2.33472 4.66944 0 0.77824 0.77824 0.77824 0.77824 0.77824 5.44768 2.29376 10.83392 3.85024 16.26112 5.40672 20.13184 6.9632 42.5984 15.48288 51.11808 39.50592l0.77824 1.55648 0 1.51552c0 6.22592 0 17.03936 0 27.87328 0.75776 12.3904 0.75776 27.09504 0.75776 38.72768 55.74656 0 110.71488 0 165.6832 0C919.01952 715.28448 916.70528 705.98656 912.83456 697.46688L912.83456 697.46688zM678.23616 619.25376c-27.09504-10.83392-55.76704-23.2448-82.08384-34.05824-7.74144-2.31424-15.48288-3.87072-22.44608-6.20544-9.29792-6.20544-17.8176-26.3168-23.26528-36.39296-4.62848-0.77824-9.27744-1.55648-13.9264-2.29376 0.77824-15.50336 10.07616-16.2816 13.9264-28.65152 3.8912-10.05568 0.77824-23.98208 6.22592-34.05824 3.85024-6.20544 12.36992-6.20544 16.26112-12.3904 3.85024-5.4272 6.18496-14.70464 7.74144-20.91008 1.536-11.61216 3.87072-27.8528-1.55648-39.46496-3.85024-6.9632-5.40672-7.76192-6.9632-15.48288-0.77824-10.07616 3.09248-42.57792 3.87072-49.5616 0-17.8176 0-19.3536-4.66944-37.13024 0 0-5.40672-16.2816-13.9264-20.93056l-17.03936-3.072-10.05568-9.29792c-41.82016-25.55904-86.7328-7.74144-110.73536 2.31424-34.83648 10.8544-56.5248 44.1344-41.04192 116.14208 2.33472 12.36992-6.9632 17.77664-6.18496 24.76032 1.536 14.70464 1.536 49.5616 15.48288 58.08128 1.55648 0.75776 10.8544 3.072 10.8544 2.29376 1.55648 14.72512 3.09248 28.65152 4.64896 43.35616 3.09248 9.29792 11.61216 10.07616 13.94688 23.2448l-10.83392 3.072c-4.64896 10.07616-13.16864 30.208-22.46656 36.39296-7.74144 2.31424-14.70464 3.87072-22.44608 6.20544-26.33728 10.81344-55.74656 23.22432-82.06336 34.05824-24.00256 10.07616-52.6336 13.94688-61.17376 38.7072 0 17.03936-1.536 57.32352-1.536 79.7696l229.94944 0 17.03936-114.60608-13.94688-29.40928 32.52224-15.50336 27.09504 15.50336-15.48288 30.18752 27.11552 113.82784 219.11552 0c0.75776-22.44608-0.77824-62.73024-0.77824-79.7696C730.89024 633.20064 702.21824 629.32992 678.23616 619.25376L678.23616 619.25376z" p-id="3955"></path></svg>