<?xml version="1.0" standalone="no"?><!DOCTYPE svg PUBLIC "-//W3C//DTD SVG 1.1//EN" "http://www.w3.org/Graphics/SVG/1.1/DTD/svg11.dtd"><svg t="1525933341881" class="icon" style="" viewBox="0 0 1024 1024" version="1.1" xmlns="http://www.w3.org/2000/svg" p-id="2713" xmlns:xlink="http://www.w3.org/1999/xlink" width="64" height="64"><defs><style type="text/css"></style></defs><path d="M1023.99 809.836l-108.009-0.054-0.02-0.085c-0.974 0.096-1.961 0.147-2.961 0.147a30 30 0 0 1-0.322-59.992h47.341c-18.8-95.582-77.685-160.041-160.835-198.257a40.5 40.5 0 0 1-9.2-71.911l0.022-0.153a172.4 172.4 0 0 0 61-131.692c0-95.542-77.677-172.994-173.5-172.994q-2.147 0-4.278 0.054l-0.124-0.08c-0.368 0.013-0.736 0.028-1.107 0.028a30 30 0 0 1 0-60c0.547 0 1.09 0.017 1.63 0.046-0.092-0.107-0.173-0.217-0.267-0.324 1.36-0.023 2.718-0.055 4.084-0.055 128.964 0 233.51 104.414 233.51 233.215a232.349 232.349 0 0 1-70.1 166.573c106.565 56.722 178.916 167.62 183.136 295.534z m-278.033-362.11a232.349 232.349 0 0 1-70.1 166.573c106.563 56.725 180.1 167.2 184.322 295.193H164.716c4.226-127.995 77.759-238.468 184.321-295.193a232.352 232.352 0 0 1-70.1-166.573c0-128.8 104.546-233.215 233.51-233.215s233.51 104.414 233.51 233.215z m-516.08 402.123h565.14c-19.08-97.031-79.461-162.01-164.617-200-34.419 21.273-73 31.09-117.953 31.09s-84.44-9.817-118.859-31.09c-85.156 37.995-144.631 102.969-163.711 200z m282.632-575.005c-95.819 0-173.5 77.452-173.5 172.994s77.677 172.995 173.5 172.995 173.5-77.453 173.5-172.995-77.681-172.994-173.5-172.994zM352 175.158c-0.371 0-0.739-0.015-1.107-0.028l-0.124 0.08q-2.133-0.051-4.278-0.054c-95.819 0-173.5 77.414-173.5 172.909a172.281 172.281 0 0 0 61 131.627l0.022 0.152a40.473 40.473 0 0 1-9.2 71.876c-83.15 38.2-142.04 102.624-160.835 198.158H111.319a29.983 29.983 0 0 1-0.319 59.966c-1 0-1.987-0.051-2.961-0.147l-0.02 0.085-108.01 0.054c4.224-127.85 76.572-238.692 183.135-295.392a232.177 232.177 0 0 1-70.1-166.49c0-128.738 104.546-233.1 233.51-233.1 1.366 0 2.724 0.032 4.084 0.055-0.094 0.106-0.175 0.216-0.267 0.323 0.54-0.029 1.083-0.045 1.63-0.045a29.986 29.986 0 1 1-0.001 59.971z" fill="#333333" p-id="2714"></path></svg>